<svg xmlns="http://www.w3.org/2000/svg" xmlns:xlink="http://www.w3.org/1999/xlink" viewBox="0,0,255.99544,255.99544" width="48px" height="48px" fill-rule="nonzero"><defs><linearGradient x1="14.988" y1="9.816" x2="36.091" y2="46.367" gradientUnits="userSpaceOnUse" id="color-1"><stop offset="0" stop-color="#868e96"></stop><stop offset="0.736" stop-color="#868e96"></stop><stop offset="1" stop-color="#868e96"></stop></linearGradient></defs><g fill="url(#color-1)" fill-rule="nonzero" stroke="none" stroke-width="1" stroke-linecap="butt" stroke-linejoin="miter" stroke-miterlimit="10" stroke-dasharray="" stroke-dashoffset="0" font-family="none" font-weight="none" font-size="none" text-anchor="none" style="mix-blend-mode: normal"><g transform="scale(5.33333,5.33333)"><path d="M42.149,16.351c0.153,0.701 0.774,1.18 1.465,1.18c0.105,0 0.213,-0.011 0.321,-0.034c0.809,-0.177 1.322,-0.977 1.146,-1.786l-1.005,-4.602c-0.176,-0.801 -0.967,-1.308 -1.762,-1.15l-4.645,0.936c-0.813,0.164 -1.338,0.955 -1.175,1.767c0.163,0.813 0.962,1.333 1.767,1.175l1.206,-0.243l-4.333,6.851l-7.66,-13.43c-0.72,-1.266 -2.019,-2.02 -3.474,-2.02c-1.455,0 -2.754,0.754 -3.475,2.019l-16.544,29.004c-0.715,1.252 -0.709,2.744 0.015,3.991c0.725,1.247 2.018,1.991 3.459,1.991h3.048c0.828,0 1.5,-0.672 1.5,-1.5c0,-0.828 -0.672,-1.5 -1.5,-1.5h-3.048c-0.52,0 -0.777,-0.349 -0.864,-0.498c-0.087,-0.149 -0.261,-0.546 -0.004,-0.997l16.544,-29.005c0.261,-0.456 0.694,-0.505 0.869,-0.505c0.175,0 0.608,0.049 0.869,0.505l8.449,14.814l-3.63,5.739c-0.014,0.024 -0.059,0.099 -0.171,0.099c-0.001,0 -0.002,0 -0.003,0c-0.114,-0.002 -0.157,-0.077 -0.172,-0.102l-2.563,-4.494c-0.576,-1.011 -1.615,-1.614 -2.779,-1.614c-1.164,0 -2.203,0.604 -2.772,1.602l-6.695,11.475c-0.715,1.252 -0.708,2.744 0.016,3.99c0.723,1.247 2.016,1.991 3.458,1.991h22.538c1.441,0 2.734,-0.744 3.459,-1.991c0.724,-1.247 0.729,-2.739 0.015,-3.99l-7.201,-12.625l5.107,-8.074zM41.413,37.506c0.257,0.45 0.083,0.847 -0.004,0.996c-0.087,0.149 -0.345,0.498 -0.864,0.498h-22.538c-0.52,0 -0.778,-0.348 -0.865,-0.498c-0.087,-0.149 -0.261,-0.546 -0.011,-0.984l6.695,-11.475c0.016,-0.027 0.058,-0.101 0.174,-0.101c0.116,0 0.158,0.073 0.174,0.101l2.563,4.494c0.569,0.999 1.596,1.603 2.745,1.614c0.012,0.001 0.024,0.001 0.036,0.001c1.135,0 2.158,-0.58 2.725,-1.525l2.759,-4.361z"></path></g></g></svg>